<svg width="24" height="24" viewBox="0 0 24 24" fill="none" xmlns="http://www.w3.org/2000/svg">
<path d="M19.439 5.63543L5.63579 19.4387C5.32139 19.7531 4.82024 19.7734 4.53033 19.4835C4.24042 19.1935 4.26073 18.6924 4.57513 18.378L18.3784 4.57477C18.6928 4.26036 19.1939 4.24005 19.4838 4.52996C19.7737 4.81988 19.7534 5.32102 19.439 5.63543Z" fill="currentColor"/>
<path d="M5.63543 4.57465L19.4387 18.3779C19.7531 18.6923 19.7734 19.1934 19.4835 19.4833C19.1935 19.7733 18.6924 19.7529 18.378 19.4385L4.57477 5.63531C4.26036 5.32091 4.24005 4.81976 4.52996 4.52985C4.81988 4.23994 5.32102 4.26025 5.63543 4.57465Z" fill="currentColor"/>
</svg>
