<svg width="24" height="24" viewBox="0 0 24 24" fill="none" xmlns="http://www.w3.org/2000/svg">
<path d="M16.5217 5.65039L13.4217 3.25039C13.0217 2.85039 12.1217 2.65039 11.5217 2.65039H7.72169C6.52169 2.65039 5.22169 3.55039 4.92169 4.75039L2.52169 12.0504C2.02169 13.4504 2.92169 14.6504 4.42169 14.6504H8.42169C9.02169 14.6504 9.52169 15.1504 9.42169 15.8504L8.92169 19.0504C8.72169 19.9504 9.32169 20.9504 10.2217 21.2504C11.0217 21.5504 12.0217 21.1504 12.4217 20.5504L16.5217 14.4504" stroke="currentColor" stroke-width="1.5" stroke-miterlimit="10"/>
<path d="M21.6172 5.65V15.45C21.6172 16.85 21.0172 17.35 19.6172 17.35H18.6172C17.2172 17.35 16.6172 16.85 16.6172 15.45V5.65C16.6172 4.25 17.2172 3.75 18.6172 3.75H19.6172C21.0172 3.75 21.6172 4.25 21.6172 5.65Z" stroke="currentColor" stroke-width="1.5" stroke-linecap="round" stroke-linejoin="round"/>
</svg>
