<svg width="24" height="24" viewBox="0 0 24 24" fill="none" xmlns="http://www.w3.org/2000/svg">
<path fill-rule="evenodd" clip-rule="evenodd" d="M7.8685 1.06566C6.63878 1.39699 5.69167 2.3218 5.31111 3.56292C5.23504 3.81105 5.21874 3.97859 5.21874 4.51199V5.15975L4.59252 5.18841C4.24808 5.20414 3.53124 5.21799 2.99951 5.21913C2.31765 5.22062 1.98512 5.23825 1.87121 5.2789C1.62635 5.36636 1.3567 5.60197 1.16893 5.89256L1 6.15392V8.0181V9.88228L1.11329 10.0756C1.35345 10.4854 1.87473 10.8428 2.23231 10.8428H2.35035L2.38111 16.3914L2.41187 21.9399L2.56392 22.2653C2.84332 22.8633 3.47038 23.3607 4.06808 23.4586C4.4119 23.515 20.0991 23.5132 20.4435 23.4568C20.8312 23.3932 21.1535 23.216 21.4894 22.8816C21.7042 22.6677 21.8278 22.497 21.9371 22.2631L22.0882 21.9399L22.1189 16.3914L22.1498 10.8428H22.2677C22.6306 10.8428 23.1577 10.4772 23.3874 10.0662L23.4999 9.86487V8.02236C23.4999 5.9896 23.5126 6.09059 23.2105 5.71747C23.1299 5.61788 22.9598 5.46955 22.8326 5.38785L22.6013 5.23935L21.1719 5.21113C20.3858 5.19557 19.6388 5.18076 19.5119 5.17817L19.2812 5.17342V4.51881C19.2812 3.97648 19.2652 3.81255 19.1882 3.56292C18.8146 2.35243 17.9098 1.45223 16.6987 1.08587C16.4122 0.999206 16.306 0.99112 15.666 1.00725C14.9889 1.0243 14.9347 1.03234 14.601 1.16476C13.848 1.46357 13.2249 1.95641 12.8198 2.5735C12.5878 2.92693 12.3598 3.46043 12.3114 3.76332C12.2715 4.01251 12.2229 4.02293 12.1909 3.78921C12.1519 3.50464 11.9226 2.93915 11.7177 2.62202C11.2369 1.87805 10.4225 1.28474 9.58495 1.06812C9.23827 0.978462 8.19769 0.976968 7.8685 1.06566ZM9.23972 2.50076C9.56316 2.56906 9.92219 2.77474 10.1961 3.04876C10.6219 3.47449 10.7717 3.87258 10.8277 4.72686L10.8569 5.17342H8.78959C6.94499 5.17342 6.71942 5.16595 6.6956 5.1039C6.63983 4.95856 6.6695 4.17666 6.73977 3.93987C6.91924 3.33478 7.28148 2.90149 7.82271 2.64443C8.29811 2.41862 8.67151 2.38078 9.23972 2.50076ZM16.4348 2.53988C17.1143 2.76881 17.6347 3.33522 17.7889 4.01396C17.8458 4.26421 17.8587 4.82486 17.8123 5.03059L17.7801 5.17342H15.7152H13.6503L13.6788 4.70097C13.7285 3.87843 13.8778 3.47225 14.2812 3.06234C14.6929 2.64417 15.1565 2.45475 15.778 2.45097C16.0574 2.44925 16.2386 2.47378 16.4348 2.53988ZM10.8437 8.00812V9.39251H6.62498H2.40625V8.00812V6.62373H6.62498H10.8437V8.00812ZM22.0937 8.00812V9.39251H17.8749H13.6562V8.00812V6.62373H17.8749H22.0937V8.00812ZM10.8437 16.4714V22.1001L7.7346 22.0733C6.02456 22.0586 4.52449 22.0363 4.40109 22.0238C4.22197 22.0057 4.1499 21.9727 4.04382 21.8606C3.97074 21.7834 3.88878 21.677 3.86171 21.6242C3.82616 21.5549 3.81249 20.0425 3.81249 16.1855V10.8428H7.3281H10.8437V16.4714ZM20.6874 16.1855C20.6874 20.0425 20.6738 21.5549 20.6382 21.6242C20.6111 21.677 20.5292 21.7834 20.4561 21.8606C20.35 21.9727 20.278 22.0057 20.0988 22.0238C19.9754 22.0363 18.4754 22.0586 16.7653 22.0733L13.6562 22.1001V16.4714V10.8428H17.1718H20.6874V16.1855Z" fill="currentColor"/>
</svg>
