<svg width="24" height="24" viewBox="0 0 24 24" fill="none" xmlns="http://www.w3.org/2000/svg">
<path d="M7.48438 18.3505L10.5844 20.7505C10.9844 21.1505 11.8844 21.3505 12.4844 21.3505H16.2844C17.4844 21.3505 18.7844 20.4505 19.0844 19.2505L21.4844 11.9505C21.9844 10.5505 21.0844 9.35046 19.5844 9.35046H15.5844C14.9844 9.35046 14.4844 8.85046 14.5844 8.15046L15.0844 4.95046C15.2844 4.05046 14.6844 3.05046 13.7844 2.75046C12.9844 2.45046 11.9844 2.85046 11.5844 3.45046L7.48438 9.55046" stroke="currentColor" stroke-width="1.5" stroke-miterlimit="10"/>
<path d="M2.38281 18.3504V8.55039C2.38281 7.15039 2.98281 6.65039 4.38281 6.65039H5.38281C6.78281 6.65039 7.38281 7.15039 7.38281 8.55039V18.3504C7.38281 19.7504 6.78281 20.2504 5.38281 20.2504H4.38281C2.98281 20.2504 2.38281 19.7504 2.38281 18.3504Z" stroke="currentColor" stroke-width="1.5" stroke-linecap="round" stroke-linejoin="round"/>
</svg>
