<svg width="24" height="24" viewBox="0 0 24 24" fill="none" xmlns="http://www.w3.org/2000/svg">
<g clip-path="url(#clip0_169_8624)">
<path d="M9.20312 1.59961L12.2031 3.99961L15.2031 1.59961" stroke="currentColor" stroke-width="1.3" stroke-linecap="round" stroke-linejoin="round"/>
<path d="M1 11L4 9.09255L2.86207 6" stroke="currentColor" stroke-width="1.3" stroke-linecap="round" stroke-linejoin="round"/>
<path d="M20.0016 19.254L16.8136 19.2002L15.6016 22.4002" stroke="currentColor" stroke-width="1.3" stroke-linecap="round" stroke-linejoin="round"/>
<path d="M3.60156 18.8536L6.78949 18.7998L8.00156 21.9998" stroke="currentColor" stroke-width="1.3" stroke-linecap="round" stroke-linejoin="round"/>
<path d="M21.1509 6L20 9.09255L23 11" stroke="currentColor" stroke-width="1.3" stroke-linecap="round" stroke-linejoin="round"/>
<path d="M12 7.11111L12.2 4M12 7.11111L7.72223 10.3744L9.36 15.6667M12 7.11111L16.2778 10.3744M7.61223 10.35L4 9M9.36 15.6667L6.8 18.8M9.36 15.6667H14.64M14.64 15.6667L16.8 19M14.64 15.6667L16.2778 10.3744M16.2778 10.3744L20 9M23 12C23 14.1756 22.3549 16.3023 21.1462 18.1113C19.9375 19.9202 18.2195 21.3301 16.2095 22.1627C14.1995 22.9952 11.9878 23.2131 9.85401 22.7886C7.72022 22.3642 5.76021 21.3165 4.22183 19.7782C2.68345 18.2398 1.6358 16.2798 1.21137 14.146C0.786929 12.0122 1.00477 9.80047 1.83733 7.79048C2.66989 5.78049 4.07979 4.06253 5.88873 2.85383C7.69767 1.64514 9.82441 1 12 1C14.9174 1 17.7153 2.15892 19.7782 4.22182C21.8411 6.28472 23 9.08262 23 12Z" stroke="currentColor" stroke-width="1.5" stroke-linecap="round" stroke-linejoin="round"/>
</g>
<defs>
<clipPath id="clip0_169_8624">
<rect width="24" height="24" fill="white"/>
</clipPath>
</defs>
</svg>
