<svg width="24" height="24" viewBox="0 0 24 24" fill="none" xmlns="http://www.w3.org/2000/svg">
<path d="M12 22L11.8899 21.8332C11.1258 20.6755 10.7438 20.0966 10.239 19.6776C9.79214 19.3066 9.27724 19.0282 8.72377 18.8584C8.09858 18.6667 7.40982 18.6667 6.03231 18.6667H4.52C3.28788 18.6667 2.67183 18.6667 2.20122 18.4245C1.78726 18.2114 1.45071 17.8715 1.23979 17.4533C1 16.978 1 16.3557 1 15.1111V5.55556C1 4.31099 1 3.68871 1.23979 3.21335C1.45071 2.79522 1.78726 2.45526 2.20122 2.24221C2.67183 2 3.28788 2 4.52 2H4.96C7.42423 2 8.65635 2 9.59756 2.48442C10.4255 2.91052 11.0986 3.59043 11.5204 4.42671C12 5.37743 12 6.62199 12 9.11111M12 22V9.11111M12 22L12.1101 21.8332C12.8742 20.6755 13.2562 20.0966 13.761 19.6776C14.2079 19.3066 14.7228 19.0282 15.2762 18.8584C15.9014 18.6667 16.5902 18.6667 17.9677 18.6667H19.48C20.7121 18.6667 21.3282 18.6667 21.7988 18.4245C22.2127 18.2114 22.5493 17.8715 22.7602 17.4533C23 16.978 23 16.3557 23 15.1111V5.55556C23 4.31099 23 3.68871 22.7602 3.21335C22.5493 2.79522 22.2127 2.45526 21.7988 2.24221C21.3282 2 20.7121 2 19.48 2H19.04C16.5758 2 15.3437 2 14.4024 2.48442C13.5745 2.91052 12.9014 3.59043 12.4796 4.42671C12 5.37743 12 6.62199 12 9.11111" stroke="currentColor" stroke-width="1.5" stroke-linecap="round" stroke-linejoin="round"/>
</svg>
