<svg width="24" height="24" viewBox="0 0 24 24" fill="none" xmlns="http://www.w3.org/2000/svg">
<path d="M4.3 13.125H7.6M1 8.625L3.2 9.75L4.59771 5.46158C4.88621 4.57641 5.03046 4.13382 5.29802 3.8066C5.53429 3.51765 5.83771 3.29399 6.18046 3.15612C6.56859 3 7.02475 3 7.93707 3H16.0629C16.9752 3 17.4314 3 17.8195 3.15612C18.1623 3.29399 18.4657 3.51765 18.702 3.8066C18.9695 4.13382 19.1138 4.57641 19.4023 5.46158L20.8 9.75L23 8.625M16.4 13.125H19.7M6.28 9.75H17.72C19.5682 9.75 20.4923 9.75 21.1982 10.1179C21.8191 10.4414 22.3239 10.9577 22.6403 11.5928C23 12.3147 23 13.2598 23 15.15V18.1875C23 18.7102 23 18.9716 22.9577 19.189C22.7841 20.0815 22.1019 20.7792 21.2292 20.9568C21.0167 21 20.7611 21 20.25 21H19.7C18.485 21 17.5 19.9926 17.5 18.75C17.5 18.4393 17.2538 18.1875 16.95 18.1875H7.05C6.74624 18.1875 6.5 18.4393 6.5 18.75C6.5 19.9926 5.51503 21 4.3 21H3.75C3.23888 21 2.98332 21 2.7708 20.9568C1.89808 20.7792 1.21587 20.0815 1.04227 19.189C1 18.9716 1 18.7102 1 18.1875V15.15C1 13.2598 1 12.3147 1.35968 11.5928C1.67606 10.9577 2.1809 10.4414 2.80183 10.1179C3.50774 9.75 4.43183 9.75 6.28 9.75Z" stroke="currentColor" stroke-width="1.5" stroke-linecap="round" stroke-linejoin="round"/>
</svg>
