<svg width="24" height="24" viewBox="0 0 24 24" fill="none" xmlns="http://www.w3.org/2000/svg">
<path d="M1.38994 8.7724H22.6101M9.7663 2L7.53261 8.7724L12 21.7528L16.4674 8.7724L14.2337 2M12.6864 21.4848L22.6918 9.35048C22.8614 9.14483 22.9462 9.042 22.9786 8.92722C23.0071 8.82603 23.0071 8.71877 22.9786 8.61758C22.9462 8.5028 22.8614 8.39997 22.6918 8.19432L17.8521 2.32491C17.7537 2.20548 17.7044 2.14576 17.6441 2.10283C17.5906 2.0648 17.5309 2.03655 17.4678 2.01938C17.3965 2 17.3196 2 17.1658 2H6.83424C6.68042 2 6.6035 2 6.53223 2.01938C6.46908 2.03655 6.40941 2.0648 6.35593 2.10283C6.29557 2.14576 6.24633 2.20548 6.14785 2.32491L1.30818 8.19432C1.13861 8.39997 1.05382 8.50279 1.02142 8.61757C0.992859 8.71877 0.992859 8.82602 1.02142 8.92722C1.05382 9.042 1.13861 9.14483 1.30818 9.35048L11.3136 21.4848C11.5493 21.7706 11.6672 21.9136 11.8083 21.9657C11.9321 22.0114 12.0679 22.0114 12.1917 21.9657C12.3328 21.9136 12.4507 21.7706 12.6864 21.4848Z" stroke="currentColor" stroke-width="1.5" stroke-linecap="round" stroke-linejoin="round"/>
</svg>
