<svg width="24" height="24" viewBox="0 0 24 24" fill="none" xmlns="http://www.w3.org/2000/svg">
<g clip-path="url(#clip0_169_8659)">
<path d="M12 5.4V23M12 5.4H8.11071C7.53766 5.4 6.98807 5.16822 6.58286 4.75564C6.17765 4.34306 5.95 3.78348 5.95 3.2C5.95 2.61652 6.17765 2.05695 6.58286 1.64437C6.98807 1.23179 7.53766 1 8.11071 1C11.1357 1 12 5.4 12 5.4ZM12 5.4H15.8893C16.4623 5.4 17.0119 5.16822 17.4171 4.75564C17.8224 4.34306 18.05 3.78348 18.05 3.2C18.05 2.61652 17.8224 2.05695 17.4171 1.64437C17.0119 1.23179 16.4623 1 15.8893 1C12.8643 1 12 5.4 12 5.4ZM20.8 10.9V19.48C20.8 20.7121 20.8 21.3282 20.5602 21.7988C20.3493 22.2127 20.0127 22.5493 19.5988 22.7602C19.1282 23 18.5121 23 17.28 23L6.72 23C5.48788 23 4.87183 23 4.40122 22.7602C3.98726 22.5493 3.65071 22.2127 3.43979 21.7988C3.2 21.3282 3.2 20.7121 3.2 19.48V10.9M1 7.16L1 9.14C1 9.75606 1 10.0641 1.11989 10.2994C1.22535 10.5064 1.39363 10.6746 1.60061 10.7801C1.83591 10.9 2.14394 10.9 2.76 10.9L21.24 10.9C21.8561 10.9 22.1641 10.9 22.3994 10.7801C22.6064 10.6746 22.7746 10.5064 22.8801 10.2994C23 10.0641 23 9.75606 23 9.14V7.16C23 6.54394 23 6.23591 22.8801 6.00061C22.7746 5.79363 22.6064 5.62535 22.3994 5.51989C22.1641 5.4 21.8561 5.4 21.24 5.4L2.76 5.4C2.14394 5.4 1.83591 5.4 1.60061 5.51989C1.39363 5.62535 1.22535 5.79363 1.11989 6.00061C1 6.23591 1 6.54394 1 7.16Z" stroke="currentColor" stroke-width="1.5" stroke-linecap="round" stroke-linejoin="round"/>
</g>
<defs>
<clipPath id="clip0_169_8659">
<rect width="24" height="24" fill="white"/>
</clipPath>
</defs>
</svg>
