<svg width="24" height="24" viewBox="0 0 24 24" fill="none" xmlns="http://www.w3.org/2000/svg">
<path d="M15.85 11.6604H14.75L13.1 14.717L10.9 8.60378L9.25 11.6604H8.15M11.9925 5.17611C9.79318 2.7946 6.12572 2.15397 3.37016 4.33473C0.614608 6.51549 0.226665 10.1616 2.39062 12.7408C4.0251 14.6889 8.66842 18.5999 10.8428 20.3971C11.2425 20.7274 11.4424 20.8926 11.6764 20.9577C11.8796 21.0141 12.1054 21.0141 12.3085 20.9577C12.5426 20.8926 12.7424 20.7274 13.1421 20.3971C15.3165 18.5999 19.9598 14.6889 21.5943 12.7408C23.7583 10.1616 23.4177 6.49255 20.6148 4.33473C17.8118 2.17691 14.1918 2.7946 11.9925 5.17611Z" stroke="currentColor" stroke-width="1.5" stroke-linecap="round" stroke-linejoin="round"/>
</svg>
