<svg width="24" height="24" viewBox="0 0 24 24" fill="none" xmlns="http://www.w3.org/2000/svg">
<path d="M2.1 16.5V6.6C2.1 5.33988 2.1 4.70982 2.33979 4.22852C2.55071 3.80516 2.88726 3.46095 3.30122 3.24524C3.77183 3 4.38788 3 5.62 3H18.38C19.6121 3 20.2282 3 20.6988 3.24524C21.1127 3.46095 21.4493 3.80516 21.6602 4.22852C21.9 4.70982 21.9 5.33988 21.9 6.6V16.5H16.029C15.76 16.5 15.6254 16.5 15.4988 16.5311C15.3866 16.5586 15.2793 16.6041 15.1809 16.6658C15.0699 16.7354 14.9748 16.8326 14.7845 17.0272L14.7155 17.0978C14.5252 17.2924 14.4301 17.3896 14.3191 17.4592C14.2207 17.5209 14.1134 17.5664 14.0012 17.5939C13.8746 17.625 13.74 17.625 13.471 17.625H10.529C10.26 17.625 10.1254 17.625 9.99885 17.5939C9.88661 17.5664 9.77931 17.5209 9.68089 17.4592C9.56988 17.3896 9.47475 17.2924 9.28451 17.0978L9.21549 17.0272C9.02525 16.8326 8.93012 16.7354 8.81911 16.6658C8.72069 16.6041 8.6134 16.5586 8.50116 16.5311C8.37456 16.5 8.24003 16.5 7.97098 16.5H2.1ZM2.1 16.5C1.49249 16.5 1 17.0037 1 17.625V18C1 18.6975 1 19.0462 1.07496 19.3323C1.27839 20.1088 1.8714 20.7153 2.6306 20.9233C2.91036 21 3.25135 21 3.93333 21H20.0667C20.7486 21 21.0896 21 21.3694 20.9233C22.1286 20.7153 22.7216 20.1088 22.925 19.3323C23 19.0462 23 18.6975 23 18C23 17.6513 23 17.4769 22.9625 17.3338C22.8608 16.9456 22.5643 16.6424 22.1847 16.5383C22.0448 16.5 21.8743 16.5 21.5333 16.5H20.8" stroke="currentColor" stroke-width="1.5" stroke-linecap="round" stroke-linejoin="round"/>
</svg>
