<svg width="24" height="24" viewBox="0 0 24 24" fill="none" xmlns="http://www.w3.org/2000/svg">
<path d="M4.40869 16.75C4.16869 19.64 6.34869 22 9.24869 22H14.0387C17.2987 22 19.5387 19.37 18.9987 16.15C18.4287 12.77 15.1687 10 11.7387 10C8.01869 10 4.71869 13.04 4.40869 16.75Z" stroke="currentColor" stroke-width="1.5" stroke-linecap="round" stroke-linejoin="round"/>
<path d="M10.4688 7.5C11.8495 7.5 12.9688 6.38071 12.9688 5C12.9688 3.61929 11.8495 2.5 10.4688 2.5C9.08804 2.5 7.96875 3.61929 7.96875 5C7.96875 6.38071 9.08804 7.5 10.4688 7.5Z" stroke="currentColor" stroke-width="1.5" stroke-linecap="round" stroke-linejoin="round"/>
<path d="M17.2969 8.7002C18.4014 8.7002 19.2969 7.80476 19.2969 6.7002C19.2969 5.59563 18.4014 4.7002 17.2969 4.7002C16.1923 4.7002 15.2969 5.59563 15.2969 6.7002C15.2969 7.80476 16.1923 8.7002 17.2969 8.7002Z" stroke="currentColor" stroke-width="1.5" stroke-linecap="round" stroke-linejoin="round"/>
<path d="M21 12.7002C21.8284 12.7002 22.5 12.0286 22.5 11.2002C22.5 10.3718 21.8284 9.7002 21 9.7002C20.1716 9.7002 19.5 10.3718 19.5 11.2002C19.5 12.0286 20.1716 12.7002 21 12.7002Z" stroke="currentColor" stroke-width="1.5" stroke-linecap="round" stroke-linejoin="round"/>
<path d="M3.96875 10.7002C5.07332 10.7002 5.96875 9.80476 5.96875 8.7002C5.96875 7.59563 5.07332 6.7002 3.96875 6.7002C2.86418 6.7002 1.96875 7.59563 1.96875 8.7002C1.96875 9.80476 2.86418 10.7002 3.96875 10.7002Z" stroke="currentColor" stroke-width="1.5" stroke-linecap="round" stroke-linejoin="round"/>
</svg>
