<svg width="24" height="24" viewBox="0 0 24 24" fill="none" xmlns="http://www.w3.org/2000/svg">
<path d="M4.29992 13.1111C4.29992 14.9427 5.03112 16.6017 6.21474 17.8066C6.32889 17.9228 6.38597 17.9809 6.41966 18.0368C6.4518 18.0901 6.47052 18.136 6.48488 18.1967C6.49992 18.2604 6.49992 18.3328 6.49992 18.4776V21.1111C6.49992 21.4223 6.49992 21.5778 6.55987 21.6967C6.6126 21.8012 6.69674 21.8862 6.80023 21.9394C6.91788 22 7.07189 22 7.37992 22H9.46992C9.77795 22 9.93197 22 10.0496 21.9394C10.1531 21.8862 10.2372 21.8012 10.29 21.6967C10.3499 21.5778 10.3499 21.4223 10.3499 21.1111V20.6667C10.3499 20.3555 10.3499 20.2 10.4099 20.0811C10.4626 19.9766 10.5467 19.8916 10.6502 19.8383C10.7679 19.7778 10.9219 19.7778 11.2299 19.7778H12.7699C13.078 19.7778 13.232 19.7778 13.3496 19.8383C13.4531 19.8916 13.5372 19.9766 13.59 20.0811C13.6499 20.2 13.6499 20.3555 13.6499 20.6667V21.1111C13.6499 21.4223 13.6499 21.5778 13.7099 21.6967C13.7626 21.8012 13.8467 21.8862 13.9502 21.9394C14.0679 22 14.2219 22 14.5299 22H16.62C16.928 22 17.082 22 17.1997 21.9394C17.3032 21.8862 17.3873 21.8012 17.4401 21.6967C17.5 21.5778 17.5 21.4223 17.5 21.1111V20.027C17.5 19.8025 17.5 19.6903 17.5316 19.6002C17.562 19.5138 17.6002 19.4533 17.665 19.3892C17.7325 19.3222 17.8471 19.2685 18.0761 19.1611C19.1565 18.6545 20.0784 17.8612 20.7462 16.878C20.8637 16.7051 20.9224 16.6186 20.9851 16.5675C21.045 16.5187 21.0988 16.4901 21.1726 16.4678C21.2498 16.4444 21.3414 16.4444 21.5246 16.4444H22.12C22.428 16.4444 22.582 16.4444 22.6997 16.3839C22.8032 16.3306 22.8873 16.2456 22.9401 16.1411C23 16.0223 23 15.8667 23 15.5556V11.7619C23 11.4657 23 11.3176 22.9455 11.2034C22.8915 11.09 22.8009 10.9985 22.6887 10.9439C22.5756 10.8889 22.4289 10.8889 22.1357 10.8889C21.9234 10.8889 21.8173 10.8889 21.7318 10.8598C21.6396 10.8284 21.575 10.7867 21.5081 10.7153C21.4461 10.6491 21.3955 10.5385 21.2942 10.3172C20.9692 9.60692 20.5241 8.96419 19.9852 8.4156C19.871 8.29939 19.814 8.24129 19.7803 8.18542C19.7481 8.1321 19.7294 8.08621 19.715 8.02549C19.7 7.96186 19.7 7.88945 19.7 7.74464V6.51175C19.7 6.1117 19.7 5.91168 19.6175 5.77723C19.5453 5.65945 19.4321 5.5732 19.3001 5.53538C19.1495 5.49221 18.9591 5.54716 18.5783 5.65706L15.9684 6.41025C15.9241 6.42304 15.9019 6.42944 15.8794 6.43394C15.8593 6.43793 15.8391 6.44079 15.8188 6.44251C15.7959 6.44444 15.7728 6.44444 15.7267 6.44444H15.2549M4.29992 13.1111C4.29992 10.551 5.72851 8.32801 7.82437 7.21101M4.29992 13.1111H3.2C1.98497 13.1111 1 12.1162 1 10.8889C1 10.0664 1.44242 9.34819 2.1 8.96396M15.3 5.88889C15.3 8.03666 13.5763 9.77778 11.45 9.77778C9.3237 9.77778 7.6 8.03666 7.6 5.88889C7.6 3.74111 9.3237 2 11.45 2C13.5763 2 15.3 3.74111 15.3 5.88889Z" stroke="currentColor" stroke-width="1.5" stroke-linecap="round" stroke-linejoin="round"/>
</svg>
