<svg width="24" height="24" viewBox="0 0 24 24" fill="none" xmlns="http://www.w3.org/2000/svg">
<g clip-path="url(#clip0_169_8598)">
<path d="M17.7228 18.0985C11.1941 18.0985 5.90148 12.8059 5.90148 6.27717M17.7228 18.0985V20.6183C17.7228 22.0247 16.576 23.185 15.1853 22.9754C7.89004 21.8761 2.12391 16.11 1.02457 8.8147C0.815003 7.42398 1.97532 6.27717 3.38174 6.27717H5.90148M17.7228 18.0985L18.719 15.1499M5.90148 6.27717L10.6403 4.67623M18.719 15.1499C18.3316 15.3879 17.8757 15.5252 17.3878 15.5252C15.9813 15.5252 14.8412 14.385 14.8412 12.9786C14.8412 11.5722 15.9813 10.4321 17.3878 10.4321C18.4699 10.4321 19.3944 11.1071 19.7632 12.059M18.719 15.1499L19.7632 12.059M19.7632 12.059L22.0861 5.18339M22.0861 5.18339L22.9308 2.68308C23.2681 1.68453 22.3155 0.731902 21.3169 1.06925L18.8166 1.91395M22.0861 5.18339C21.8122 5.28402 21.5163 5.33897 21.2076 5.33897C19.8012 5.33897 18.661 4.19884 18.661 2.79242C18.661 2.48368 18.716 2.18778 18.8166 1.91395M18.8166 1.91395L12.436 4.06955M12.436 4.06955C13.7767 4.14291 14.8412 5.25326 14.8412 6.61224C14.8412 8.01866 13.7011 9.15879 12.2947 9.15879C10.8882 9.15879 9.74811 8.01866 9.74811 6.61224C9.74811 5.83735 10.0942 5.14329 10.6403 4.67623M12.436 4.06955L10.6403 4.67623" stroke="currentColor" stroke-width="1.5" stroke-linecap="round"/>
</g>
<defs>
<clipPath id="clip0_169_8598">
<rect width="24" height="24" fill="white"/>
</clipPath>
</defs>
</svg>
