<svg width="24" height="24" viewBox="0 0 24 24" fill="none" xmlns="http://www.w3.org/2000/svg">
<g clip-path="url(#clip0_169_8638)">
<path d="M21.4565 2.606L16.5138 1C16.5138 2.16695 16.0383 3.28611 15.1918 4.11127C14.3452 4.93643 13.1971 5.4 12 5.4C10.8029 5.4 9.65475 4.93643 8.80825 4.11127C7.96174 3.28611 7.48618 2.16695 7.48618 1L2.54355 2.606C2.03279 2.77187 1.59968 3.11026 1.3224 3.56008C1.04511 4.0099 0.941908 4.54152 1.03142 5.059L1.68592 8.876C1.72889 9.1344 1.86499 9.3694 2.06976 9.53876C2.27453 9.70813 2.53455 9.80075 2.80309 9.8H5.22927V20.8C5.22927 22.01 6.24488 23 7.48618 23H16.5138C17.1124 23 17.6864 22.7682 18.1097 22.3556C18.5329 21.9431 18.7707 21.3835 18.7707 20.8V9.8H21.1969C21.4655 9.80075 21.7255 9.70813 21.9302 9.53876C22.135 9.3694 22.2711 9.1344 22.3141 8.876L22.9686 5.059C23.0581 4.54152 22.9549 4.0099 22.6776 3.56008C22.4003 3.11026 21.9672 2.77187 21.4565 2.606Z" stroke="currentColor" stroke-width="1.5" stroke-linecap="round" stroke-linejoin="round"/>
</g>
<defs>
<clipPath id="clip0_169_8638">
<rect width="24" height="24" fill="white"/>
</clipPath>
</defs>
</svg>
