<svg width="24" height="24" viewBox="0 0 24 24" fill="none" xmlns="http://www.w3.org/2000/svg">
<g clip-path="url(#clip0_169_8635)">
<path d="M1 1H2.44483C2.71697 1 2.85304 1 2.96254 1.04976C3.05903 1.09362 3.14081 1.16415 3.19811 1.25294C3.26314 1.3537 3.28238 1.48765 3.32087 1.75555L3.84442 5.4M3.84442 5.4L5.00799 13.9045C5.15564 14.9838 5.22947 15.5234 5.48892 15.9296C5.71754 16.2875 6.04531 16.5721 6.43276 16.7491C6.87247 16.95 7.42011 16.95 8.5154 16.95H17.9818C19.0244 16.95 19.5457 16.95 19.9718 16.7635C20.3474 16.599 20.6696 16.3338 20.9024 15.9976C21.1664 15.6164 21.2639 15.1071 21.459 14.0886L22.9232 6.44466C22.9918 6.08619 23.0262 5.90695 22.9764 5.76685C22.9328 5.64395 22.8467 5.54045 22.7334 5.47482C22.6043 5.4 22.4208 5.4 22.0539 5.4H3.84442ZM9.84931 21.9C9.84931 22.5075 9.35407 23 8.74315 23C8.13223 23 7.63698 22.5075 7.63698 21.9C7.63698 21.2925 8.13223 20.8 8.74315 20.8C9.35407 20.8 9.84931 21.2925 9.84931 21.9ZM18.6986 21.9C18.6986 22.5075 18.2034 23 17.5925 23C16.9815 23 16.4863 22.5075 16.4863 21.9C16.4863 21.2925 16.9815 20.8 17.5925 20.8C18.2034 20.8 18.6986 21.2925 18.6986 21.9Z" stroke="currentColor" stroke-width="1.5" stroke-linecap="round" stroke-linejoin="round"/>
</g>
<defs>
<clipPath id="clip0_169_8635">
<rect width="24" height="24" fill="white"/>
</clipPath>
</defs>
</svg>
