<svg width="24" height="24" viewBox="0 0 24 24" fill="none" xmlns="http://www.w3.org/2000/svg">
<path d="M9.92833 1.59592L3.53683 6.0043C1.48772 7.41767 1.48772 10.5809 3.53683 11.9943L9.92833 16.4027C11.075 17.1991 12.9648 17.1991 14.1115 16.4027L20.4711 11.9943C22.5096 10.5809 22.5096 7.42889 20.4711 6.01552L14.1115 1.60714C12.9648 0.799499 11.075 0.799499 9.92833 1.59592Z" stroke="currentColor" stroke-width="1.5" stroke-linecap="round" stroke-linejoin="round"/>
<path d="M5.01097 13L5 18.2608C5 19.6854 6.07524 21.2109 7.39185 21.6596L10.8918 22.8486C11.4953 23.0505 12.4937 23.0505 13.1082 22.8486L16.6082 21.6596C17.9248 21.2109 19 19.6854 19 18.2608V13.0561" stroke="currentColor" stroke-width="1.5" stroke-linecap="round" stroke-linejoin="round"/>
<path d="M22 15V9" stroke="currentColor" stroke-width="1.5" stroke-linecap="round" stroke-linejoin="round"/>
</svg>
