<svg width="24" height="24" viewBox="0 0 24 24" fill="none" xmlns="http://www.w3.org/2000/svg">
<path d="M16.0056 7.18466C15.5707 6.74973 15.3533 6.53227 15.2718 6.28151C15.2001 6.06093 15.2001 5.82333 15.2718 5.60275C15.3533 5.35199 15.5707 5.13452 16.0057 4.6996L19.1229 1.58236C18.2957 1.20825 17.3774 1 16.4105 1C12.7712 1 9.82099 3.95022 9.82099 7.5895C9.82099 8.12879 9.88578 8.65294 10.008 9.15461C10.1389 9.69182 10.2043 9.96043 10.1927 10.1301C10.1805 10.3078 10.154 10.4023 10.0721 10.5604C9.99383 10.7114 9.8439 10.8613 9.54403 11.1612L2.68236 18.0229C1.77254 18.9327 1.77255 20.4078 2.68237 21.3176C3.59219 22.2275 5.0673 22.2275 5.97712 21.3176L12.8388 14.456C13.1387 14.1561 13.2886 14.0062 13.4396 13.9279C13.5977 13.846 13.6922 13.8195 13.8699 13.8073C14.0396 13.7957 14.3082 13.8611 14.8454 13.992C15.3471 14.1142 15.8712 14.179 16.4105 14.179C20.0498 14.179 23 11.2288 23 7.5895C23 6.62259 22.7917 5.70433 22.4176 4.87711L19.3004 7.99435C18.8655 8.42928 18.648 8.64674 18.3973 8.72822C18.1767 8.79989 17.9391 8.79989 17.7185 8.72822C17.4677 8.64674 17.2503 8.42928 16.8153 7.99435L16.0056 7.18466Z" stroke="currentColor" stroke-width="1.5" stroke-linecap="round" stroke-linejoin="round"/>
</svg>
