<svg width="24" height="24" viewBox="0 0 24 24" fill="none" xmlns="http://www.w3.org/2000/svg">
<path d="M9.8 7.52632H5.4L4.3 6.42105L3.2 7.52632H1C1 4.47579 3.706 2 7.05 2C10.394 2 13.1 4.47579 13.1 7.52632C13.65 9.73684 16.4 16.9211 14.2 23H9.8C10.713 20.7895 11.45 18.5789 10.9 15.8158M13.1 6.57567C14.2139 5.74822 15.5648 5.3061 16.95 5.31567C20.294 5.31567 23 7.79146 23 10.842H19.7L18.6 9.73672L17.5 10.842H14.2M5.27896 9.41628C2.91396 11.7926 2.74896 15.4621 4.89396 17.6284L9.55796 12.931L13.441 9.02944C11.296 6.86313 7.64396 7.03997 5.27896 9.41628Z" stroke="currentColor" stroke-width="1.5" stroke-linecap="round" stroke-linejoin="round"/>
</svg>
